<svg xmlns="http://www.w3.org/2000/svg" viewBox="0 0 535.46 362.27"><title>logo</title><path d="M562.52,278.95,456.74,173.18a15.6,15.6,0,0,0-22.06,0l-22,22L440.58,223A18.53,18.53,0,0,1,464,246.63l26.85,26.85a18.54,18.54,0,1,1-11.12,10.47l-25-25v65.9a18.53,18.53,0,1,1-15.26-.54V257.75a18.57,18.57,0,0,1-10.08-24.35l-27.47-27.47L329.4,278.46a15.61,15.61,0,0,0,0,22.07L435.17,406.3a15.6,15.6,0,0,0,22.06,0L562.52,301A15.61,15.61,0,0,0,562.52,278.95Z" transform="translate(-31.63 -118.82)" fill="#f05133"/><path d="M295.26,307.64s9.78.35,18.27-3.22,20.1-6.81,18.18-19.19c-1.18-7.61-19.48-3.7-19.48-3.7s-13.4,4.95-22.3,4.44" transform="translate(-31.63 -118.82)" fill="#f3d4b7"/><path d="M295.26,308.92c9.8.27,19.53-2.87,28.16-7.37,6-3.11,13.71-11.73,8.56-18.91-3.6-5-13.05-3.53-18.18-2.68-8.12,1.35-15.36,5-23.87,4.74-1.64,0-1.64,2.5,0,2.55,12.11.35,23.71-7.63,35.86-5.13,5.24,1.08,6,6.16,3.75,10.67-1.86,3.73-5.81,5.88-9.45,7.54-7.87,3.59-16.07,6.27-24.83,6a1.28,1.28,0,0,0,0,2.55Z" transform="translate(-31.63 -118.82)"/><path d="M206.8,142.3S207,120,218.91,120.2s7,25.92,7,25.92" transform="translate(-31.63 -118.82)" fill="#b5d7d3"/><path d="M208.08,142.3c.09-6.08,3-25.29,13.1-20.32,6.89,3.39,4.65,17.74,3.52,23.81-.3,1.6,2.16,2.29,2.46.68,1.38-7.4,3.73-24.77-6.35-27.3-12-3-15.16,14.92-15.28,23.14a1.28,1.28,0,0,0,2.55,0Z" transform="translate(-31.63 -118.82)"/><path d="M212.07,451.56s16.79,29,25.82,23.32-11.64-30.16-11.64-30.16" transform="translate(-31.63 -118.82)" fill="#f3d4b7"/><path d="M211,452.2a105.09,105.09,0,0,0,10.67,15.2c3.44,4,10.43,12.13,16.62,8.73,10.88-6-6.59-26.93-11.11-32.31-1.06-1.26-2.85.55-1.8,1.8,3.07,3.65,20.58,26.31,10.7,28.62-5.83,1.36-12.57-8.42-15.47-12.25a111.31,111.31,0,0,1-7.4-11.08,1.28,1.28,0,0,0-2.2,1.29Z" transform="translate(-31.63 -118.82)"/><path d="M66.55,396.66c-11.26-1.28-11.26-2.76-17-1.28S28.3,406.43,34.25,410.9s6.59,6,14.45,4.68,24.22-4.89,24.22-4.89" transform="translate(-31.63 -118.82)" fill="#b5d7d3"/><path d="M66.55,395.38c-7.82-.94-14-3.15-21.47.39-4.19,2-14.71,7.47-13.32,13.57.67,2.93,5.13,5.53,7.56,6.77,3.38,1.72,7.06,1.13,10.67.53,7.81-1.3,15.56-3,23.28-4.73,1.6-.35.92-2.81-.68-2.46q-7.62,1.68-15.28,3.22c-7.41,1.48-16.52,4.4-22.07-2.71-3.83-4.91,9.7-11.7,13.64-13,5.72-1.95,11.88.31,17.67,1,1.63.2,1.61-2.36,0-2.55Z" transform="translate(-31.63 -118.82)"/><ellipse cx="269.36" cy="92.04" rx="38.51" ry="36.55" fill="#fff"/><path d="M338.21,210.85c-.64,33-43.78,46.86-65.39,23.08a34.26,34.26,0,0,1-3.76-41.25c8.24-13,24.38-19.28,39.34-16.4,16.76,3.23,29.48,17.38,29.81,34.57a1.28,1.28,0,0,0,2.55,0A38.51,38.51,0,0,0,315,175.46c-15.58-5.64-34.07-1.2-44.89,11.49a36.78,36.78,0,0,0-3.29,43.36c8.74,13.79,25.62,20.54,41.53,17.71,18.17-3.23,32-18.61,32.37-37.16A1.28,1.28,0,0,0,338.21,210.85Z" transform="translate(-31.63 -118.82)"/><ellipse cx="297.95" cy="91.63" rx="9.92" ry="9.64" stroke="#1d1d1b" stroke-miterlimit="10" stroke-width="0.85"/><ellipse cx="297.2" cy="90.9" rx="3.15" ry="3.14" fill="#fff" stroke="#1d1d1b" stroke-miterlimit="10" stroke-width="0.85"/><path d="M77.06,216.25c.77-11.06,18.7-49.3,49.3-62.9s42.5-13.6,72.25-16.15,74.8,23.8,83.3,34.85,14.45,21.08,16.15,36,1.7,21.76,4.25,37.06-.85,74-10.2,96c-6.18,14.61-15.71,50.78-36.44,79-10.62,14.47-24.19,26.85-41.76,33.19-51.85,18.7-82.46,8-90.1,7.65-22-.88-26.58-7.2-51.85-37.4-15.29-18.27-17.73-40.15-17.73-55.46,0-18.59,25.5-62.69,26.35-88.19C82.09,234.64,75,246.28,77.06,216.25Z" transform="translate(-31.63 -118.82)" fill="#b5d7d3"/><path d="M78.33,216.25c1-11.23,8.44-22.92,14.69-31.9a90,90,0,0,1,40.55-32.72c16.49-6.84,33-10.39,50.76-11.95,8.28-.73,16.66-1.91,25-1a103.65,103.65,0,0,1,24.06,6c14.58,5.29,29.25,12.66,41.43,22.37,12.85,10.26,20.39,26.87,22.2,42.91,1,8.92,1.57,17.89,2.77,26.8.83,6.19,1.87,12.18,2,18.42a322.06,322.06,0,0,1-2,42c-1.46,13.95-3.16,28.63-8.13,41.84s-9.52,26.7-14.93,39.79c-7.71,18.64-17.33,37.05-31.27,51.83-14.94,15.84-33.75,23.55-54.66,28.39a149.52,149.52,0,0,1-47.53,3.6c-7.93-.74-15.69-2.33-23.62-3-12.83-1.11-21.36-7.6-29.83-16.9-13.6-15-27-30.11-31.74-50.27a97.94,97.94,0,0,1-2.56-24.16c.13-6.15,2.1-12.2,4-18,5.21-15.43,12-30.27,17.08-45.75s6-30.3,5.2-46.41c-.44-8.53-2.71-16.62-3.57-25a100.35,100.35,0,0,1,.08-16.75c.11-1.64-2.44-1.63-2.55,0a110.31,110.31,0,0,0,2,28.52,113.34,113.34,0,0,1,1.68,18.14c.22,9.17.37,18.52-1.57,27.53-3.66,17-11,33-17.18,49.13-2.58,6.79-5.19,13.67-6.74,20.78-1.39,6.41-1.1,12.91-.49,19.41a89.85,89.85,0,0,0,6.25,26.08c4,9.56,10.09,17.24,16.68,25.1,8.5,10.15,17.48,23,30.19,28.28,8.2,3.38,17.68,3.13,26.38,4.54a143.83,143.83,0,0,0,39.91.89c19.85-2.35,41.57-7.38,58.37-18.64,16.25-10.88,28.21-27.07,37.37-44.11,8.66-16.08,14.82-33.23,20.94-50.38,2-5.57,4.43-11,6.12-16.68a160.05,160.05,0,0,0,4.46-20.9,360.76,360.76,0,0,0,4.18-47.72c.33-14.45-2.12-28.12-3.45-42.48-.89-9.56-1.27-19.4-4.32-28.58a76.71,76.71,0,0,0-13.75-24c-7.9-9.61-20.61-16.14-31.52-21.55-14.45-7.16-30.56-13.35-46.86-13.82-9.37-.27-19.06,1.13-28.37,2.15a148.09,148.09,0,0,0-23,4.17c-17.59,4.82-35.26,12.06-48.57,24.83a110,110,0,0,0-25.1,36.84c-1.65,4-3.21,8.16-3.59,12.49C75.64,217.88,78.19,217.87,78.33,216.25Z" transform="translate(-31.63 -118.82)"/><path d="M102.25,451.27s-8.92,27,4.67,28.48,14.87-24.86,14.87-24.86" transform="translate(-31.63 -118.82)" fill="#f3d4b7"/><path d="M101,450.93c-2.65,8.11-7.39,28.29,5.57,30,12.71,1.72,16-17,16.49-26.09.09-1.64-2.46-1.64-2.55,0-.39,7.51-3.17,25.78-14.12,23.5-10-2.08-5-20.3-2.93-26.77.51-1.56-2-2.23-2.46-.68Z" transform="translate(-31.63 -118.82)"/><path d="M99.54,447.58s2,10.09,6.16,12.79c0,0,.75-7.23,1.46-7.51s10.34,7.65,8.92,8.78,8.23-5,8.23-7.82" transform="translate(-31.63 -118.82)" fill="#b5d7d3"/><path d="M98.31,447.92c1,4.83,2.7,10.43,6.74,13.55.85.66,1.83-.27,1.92-1.1.15-1.41.31-2.83.56-4.22.12-.65.34-1.32.41-2,0-.23-1.12-.65-.25.39,1.08,1.28,2.93,2.23,4.18,3.39.87.81,2.78,3.26,3.16,2.91a1.29,1.29,0,0,0,.9,2.18c3,0,9.11-6,9.59-8.88.27-1.61-2.18-2.29-2.46-.68-.33,1.94-2.75,3.58-4.18,4.71a23,23,0,0,0-2.24,1.65c-.32.32-1.59.67-.71.66l.9,2.18c3.08-2.77-5.94-9.22-7.86-10.31-4.5-2.55-4.25,5.09-4.56,8l1.92-1.1c-3.39-2.62-4.73-8-5.57-12-.33-1.61-2.79-.93-2.46.68Z" transform="translate(-31.63 -118.82)"/><path d="M209.72,437.23c-17.57-9.45-18-23.59-4.25-41.18,10.09-12.93,21.53-25.78,27.82-62.9,3.34-19.73,22.8-43,40.84-41.61s26.53,20.54,19.92,38.89-30.69,88.81-48,97.9C246,428.33,225.7,445.82,209.72,437.23Z" transform="translate(-31.63 -118.82)" fill="#cde8eb"/><ellipse cx="174.02" cy="100.83" rx="46.3" ry="43.35" fill="#fff"/><path d="M250.66,219.65c-.3,18.42-12.83,34.11-30.21,39.75s-37.2.87-49.37-12.77A40.4,40.4,0,0,1,167,198c10-15.61,29.48-23,47.47-19.67,20.09,3.76,35.87,20.52,36.2,41.27a1.28,1.28,0,0,0,2.55,0c-.31-19.12-12.94-35.39-30.8-41.77-18.54-6.62-40.55-1.47-53.57,13.47a43,43,0,0,0-4.06,51.18c10.49,16.4,30.71,24.27,49.66,21,21.5-3.75,38.4-21.76,38.76-43.85A1.28,1.28,0,0,0,250.66,219.65Z" transform="translate(-31.63 -118.82)" fill="#1d1d1b"/><ellipse cx="187.5" cy="94.6" rx="15.02" ry="13.6" stroke="#1d1d1b" stroke-miterlimit="10" stroke-width="0.85"/><ellipse cx="183.53" cy="90.65" rx="3.97" ry="3.95" fill="#fff" stroke="#1d1d1b" stroke-miterlimit="10" stroke-width="0.85"/><path d="M114.58,177.15,97.86,155.9S89.5,142.38,102.53,137s22,5,22.67,6,11.19,16.86,11.19,16.86" transform="translate(-31.63 -118.82)" fill="#b5d7d3"/><path d="M115.48,176.24,102.74,160c-3.38-4.3-7-8.2-6.14-14.42,1.13-7.85,11.39-10,17.88-8.22a19.38,19.38,0,0,1,9.72,6.4c4.12,5.16,7.44,11.19,11.08,16.7.9,1.36,3.11.09,2.2-1.29-6.88-10.41-13.48-25.64-28.35-25-8.44.38-16.37,5.84-15,15,.68,4.57,2.82,7.57,5.56,11l14,17.78c1,1.29,2.81-.53,1.8-1.8Z" transform="translate(-31.63 -118.82)"/><path d="M112.45,150.09s-.09,7.65,3.36,11.05,6.56,5.81,8.26,4.53-3-10.63-5-11.76S115.85,149.66,112.45,150.09Z" transform="translate(-31.63 -118.82)" fill="#020405"/><path d="M111.18,150.09c0,3.77.69,8.15,3.06,11.18,1.47,1.88,8.67,9.15,11.16,4.74,1.61-2.85-1.84-8.34-3.33-10.6a21,21,0,0,0-3.68-3.76c-1.81-1.69-3.32-3-5.93-2.84-1.63.07-1.64,2.62,0,2.55,2.42-.11,5.43,2.76,6.94,4.64,1.35,1.69,3.83,5.55,3.67,7.78-.1,1.33-.71.78-1.82.27a12.49,12.49,0,0,1-2.84-2.22,11.6,11.6,0,0,1-3.65-5.07,20.8,20.8,0,0,1-1-6.68A1.28,1.28,0,0,0,111.18,150.09Z" transform="translate(-31.63 -118.82)" fill="#1d1d1b"/><ellipse cx="254.86" cy="98.69" rx="15.58" ry="11.21" fill="#9a8d7d"/><path d="M300.79,217.51c-.94,13.32-28.62,13.4-28.62,0s27.68-13.32,28.62,0c.11,1.63,2.67,1.64,2.55,0-1.17-16.6-33.8-16.77-33.72,0s32.55,16.6,33.72,0C303.46,215.87,300.91,215.88,300.79,217.51Z" transform="translate(-31.63 -118.82)"/><path d="M275,243.93v21s-1.17,2.93,7,3.34,9.14,0,9.14,0,4.22,1.39,5.86-5.43,5.86-19.64,5.86-19.64Z" transform="translate(-31.63 -118.82)" fill="#fff"/><path d="M273.76,243.93c0,6.36-.05,12.73,0,19.1,0,1.42-.44,2.19.21,3.46,1.54,3,6.15,3,9,3.14a58.19,58.19,0,0,0,7,.1c.24,0,2-.19,1.25-.18a6.55,6.55,0,0,0,5-1.89c2.87-3.23,3.31-9.18,4.52-13.2q1.64-5.47,3.42-10.9a1.28,1.28,0,0,0-1.23-1.61l-27.88.7a1.28,1.28,0,0,0,0,2.55l27.88-.7-1.23-1.61c-2.08,6.34-3.89,12.73-5.73,19.14-1,3.38-1.85,4.91-5.1,5.05-2.34.11-4.67.14-7,0s-6.58.12-7.52-2.21c-.56-1.38,0-4.22,0-5.69V243.93A1.28,1.28,0,0,0,273.76,243.93Z" transform="translate(-31.63 -118.82)"/><path d="M285.51,225.73s-7.14-3.36-14.51-1.52-16,9.49-15.3,16.86,8.22,12.33,12.75,12.47c1.71.05,5.72,1.56,15.08,1.56,8.37,0,9.78-.79,14.73-1,6.35-.26,10.85-5.1,10.71-14s-6.23-13.46-12.75-13A25.92,25.92,0,0,1,285.51,225.73Z" transform="translate(-31.63 -118.82)" fill="#f3d4b7"/><path d="M286.15,224.63a23.46,23.46,0,0,0-27.69,6.08c-7,8.13-3.69,19.49,6.35,23.28,8.8,3.32,20.05,2.74,29.14,1.75,4.24-.47,8.56-.26,11.92-3.35,3.7-3.41,4.76-9,4.29-13.84-.5-5-3.14-9.74-7.95-11.77-5.18-2.19-11.05-.2-16.36-2.27-1.53-.6-2.19,1.87-.68,2.46,3.54,1.39,7.32,1.31,11,1.36,7.69.1,11.82,5.82,11.45,13.29-.34,7.08-4.2,10.7-11,11.31a137.25,137.25,0,0,1-14.05.89c-8.49-.1-22-.66-25.13-10.43-2.36-7.28,4.36-13.83,10.41-16.69a20.71,20.71,0,0,1,17,.14C286.35,227.5,287.65,225.3,286.15,224.63Z" transform="translate(-31.63 -118.82)"/><path d="M153.27,332.27a51.57,51.57,0,0,0,0,17.11c1.66,8.28,6.62,20.42,16.56,18.21s4.42-16.83,4.42-16.83-3-11.87-1.38-19.87" transform="translate(-31.63 -118.82)" fill="#f3d4b7"/><path d="M152,331.93a46,46,0,0,0,2.46,25.87c2.82,6.67,9,13.77,17,10.6,6.27-2.48,6.1-10,4.71-15.5-1.78-7.09-3.4-14.31-2.13-21.67.28-1.61-2.18-2.29-2.46-.68a48.58,48.58,0,0,0,1.18,19.72c.89,3.54,2.2,7.07,1.53,10.79-.82,4.52-5.34,6.53-9.58,5-4-1.48-6.4-5.62-8-9.39a43.3,43.3,0,0,1-2.29-24c.29-1.6-2.17-2.29-2.46-.68Z" transform="translate(-31.63 -118.82)"/><path d="M147,328.4c5,7.37,17.19,8.15,17.19,8.15a6,6,0,0,1,0-6.16,12.66,12.66,0,0,0,5.48,5.45l6.52-7.44" transform="translate(-31.63 -118.82)" fill="#b5d7d3"/><path d="M145.86,329c4.25,5.64,11.4,8.27,18.29,8.78a1.29,1.29,0,0,0,1.1-1.92,5.13,5.13,0,0,1,0-4.87h-2.2a14.31,14.31,0,0,0,5.93,5.91,1.3,1.3,0,0,0,1.55-.2l6.52-7.44c1.08-1.23-.72-3-1.8-1.8L170.41,333c-.27.31-.65,1-1,1.15-1.32.73.08.32-.51.27s-3-3.51-3.64-4.69a1.28,1.28,0,0,0-2.2,0c-1.12,2.5-1.43,5,0,7.45l1.1-1.92c-5.88-.43-12.46-2.69-16.09-7.51-1-1.3-3.19,0-2.2,1.29Z" transform="translate(-31.63 -118.82)"/></svg>