<svg xmlns="http://www.w3.org/2000/svg" viewBox="0 0 208.12 45.91"><path d="M17,34.19a5,5,0,0,1,2.86-4.35,2.3,2.3,0,0,1-1.53-2.28A2.83,2.83,0,0,1,20,25.11,5.6,5.6,0,0,1,17.14,20c0-3.37,2.45-5.88,6.19-5.88a7.38,7.38,0,0,1,2.35.37h5.1v1.43H27.88a5.67,5.67,0,0,1,1.63,4c0,3.4-2.45,5.92-6.22,5.92a6.56,6.56,0,0,1-1.87-.24,1.76,1.76,0,0,0-1.36,1.6c0,1.26,1.6,1.43,3.4,1.5,3.37.17,7.45.2,7.45,4.62,0,3.26-3.6,5.27-7.75,5.27C19.52,38.64,17,37.11,17,34.19Zm12.07-.71c0-2.86-2.41-3-4.69-3.06-1.05,0-2.28-.1-3.09-.2A4.12,4.12,0,0,0,18.77,34c0,1.8,1.43,3.16,4.45,3.16C26.62,37.18,29.11,35.72,29.11,33.48ZM27.71,20a4.23,4.23,0,0,0-4.42-4.42A4.18,4.18,0,0,0,18.94,20a4.2,4.2,0,0,0,4.39,4.42A4.19,4.19,0,0,0,27.71,20Z" fill="#0080ff"/><path d="M33.39,22.63c0-4.08,2.18-8.5,7.28-8.5s7.45,4.39,7.45,8.43S45.8,31.1,40.7,31.1,33.39,26.71,33.39,22.63Zm12.85,0c0-3.64-1.94-7-5.64-7s-5.34,3.26-5.34,6.9,1.8,7,5.47,7S46.24,26.3,46.24,22.63Z" fill="#0080ff"/><path d="M51.41,20.12H57.9v1.56H51.41Z" fill="#0080ff"/><path d="M61,34.33a4.76,4.76,0,0,1,2.79-4.11,2.61,2.61,0,0,1-1.46-2.48,3.35,3.35,0,0,1,1.77-2.86,5.5,5.5,0,0,1-2.92-5c0-3.5,2.65-6,7-6a8.82,8.82,0,0,1,2.75.41h5.71v2.52H74.29a5.61,5.61,0,0,1,.92,3.09c0,3.47-2.55,6-6.9,6a11,11,0,0,1-1.87-.17c-.58.31-.85.65-.85,1.12,0,.88,1,1.16,2.89,1.22,3.5.2,8.13.1,8.13,5.07,0,3.43-3.74,5.71-8.63,5.71C63.82,38.81,61,37.45,61,34.33ZM73,33.41c0-2.11-1.9-2.11-4.08-2.24-.88-.07-1.84-.1-2.65-.24a3.27,3.27,0,0,0-1.73,2.82c0,1.43,1.09,2.52,3.67,2.52C71.13,36.26,73,35.07,73,33.41ZM71.64,19.88a3.43,3.43,0,1,0-6.87,0,3.43,3.43,0,0,0,6.87,0Z"/><path d="M79.73,9.41a2.36,2.36,0,1,1,2.35,2.31A2.32,2.32,0,0,1,79.73,9.41Zm.54,4.86h3.64V30.72H80.28Z"/><path d="M90,26.34V17H87.38V14.27H90V9.54h3.6v4.73h4V17h-4v8.74c0,1.63.44,2.38,1.77,2.38a4.28,4.28,0,0,0,2.18-.68l1,2.72a7.77,7.77,0,0,1-3.84,1C91.39,31.13,90,29.29,90,26.34Z"/><path d="M101.35,9.41a2.36,2.36,0,1,1,2.35,2.31A2.32,2.32,0,0,1,101.35,9.41Zm.54,4.86h3.64V30.72H101.9Z"/><path d="M109.52,34.33a4.76,4.76,0,0,1,2.79-4.11,2.61,2.61,0,0,1-1.46-2.48,3.35,3.35,0,0,1,1.77-2.86,5.5,5.5,0,0,1-2.92-5c0-3.5,2.65-6,7-6a8.82,8.82,0,0,1,2.75.41h5.71v2.52h-2.38a5.61,5.61,0,0,1,.92,3.09c0,3.47-2.55,6-6.9,6a11,11,0,0,1-1.87-.17c-.58.31-.85.65-.85,1.12,0,.88,1,1.16,2.89,1.22,3.5.2,8.13.1,8.13,5.07,0,3.43-3.74,5.71-8.63,5.71C112.3,38.81,109.52,37.45,109.52,34.33Zm11.93-.92c0-2.11-1.9-2.11-4.08-2.24-.88-.07-1.84-.1-2.65-.24A3.27,3.27,0,0,0,113,33.75c0,1.43,1.09,2.52,3.67,2.52C119.61,36.26,121.45,35.07,121.45,33.41Zm-1.33-13.53a3.43,3.43,0,1,0-6.87,0,3.43,3.43,0,0,0,6.87,0Z"/><path d="M128.49,14.27h3.57v2.21a6.72,6.72,0,0,1,5.27-2.62c3.54,0,4.9,2.31,4.9,5.24V30.72h-3.6V19.84C138.62,18,138,17,136.1,17a5.38,5.38,0,0,0-4,2.48V30.72h-3.64Z"/><path d="M145.76,22.53c0-4,2.21-8.67,7.89-8.67s8.13,4.52,8.13,8.57-2.41,8.7-8.06,8.7S145.76,26.57,145.76,22.53Zm12.17,0c0-3.26-1.39-5.85-4.35-5.85s-4,2.48-4,5.75,1.26,5.85,4.18,5.85S157.93,25.83,157.93,22.53Z"/><path d="M165.38,14.27H169v2.38a5.12,5.12,0,0,1,4.25-2.79,4,4,0,0,1,2,.41l-.88,3.23a3,3,0,0,0-1.6-.34c-2.21,0-3.47,2.28-3.77,2.89V30.72h-3.64Z"/><path d="M176.43,22.39c0-5,3.3-8.53,7.79-8.53s6.87,2.92,6.87,7.75c0,.44,0,1-.07,1.43H180.27c.17,2.92,1.46,5.27,4.66,5.27A8.32,8.32,0,0,0,189.31,27l1.26,2.48a10.46,10.46,0,0,1-5.92,1.63C179.28,31.13,176.43,27.46,176.43,22.39Zm11.08-1.94c-.07-2.07-1-3.84-3.37-3.84-2.21,0-3.43,1.53-3.84,3.84Z"/></svg>